<svg width="48" height="67" viewBox="0 0 48 67" fill="none" xmlns="http://www.w3.org/2000/svg">
<path d="M10.6667 15.3143C10.6667 17.2286 0 17.2286 8.03534e-06 15.3143L1.11324e-05 14.8346C1.0161e-05 14.8611 8.03591e-06 14.4391 8.03534e-06 11.4857C8.03422e-06 5.74286 8 0 16 0H32C40 -5.76839e-06 48 5.74285 48 11.4857V17.2286C48 19.1429 48 19.1429 46.1333 21.0571L31.2 36.3714C29.3333 38.2857 29.3333 38.2857 29.3333 40.2V45.9429C29.3333 47.8571 18.6667 47.8571 18.6667 45.9429V40.2C18.6667 38.2857 18.6667 38.2857 20.5333 36.3714L35.4667 21.0571C37.3333 19.1429 37.3333 19.1429 37.3333 17.2286V11.4857C37.3333 9.57143 34.6667 7.65714 32 7.65714H16C13.3333 7.65714 10.6667 9.57143 10.6667 11.4857V15.3143Z" fill="#101010"/>
<path d="M16 61.2571L24 55.5143L32 61.2571L24 67L16 61.2571Z" fill="#101010"/>
</svg>
