<svg width="49" height="25" viewBox="0 0 49 25" fill="none" xmlns="http://www.w3.org/2000/svg">
<path d="M0 19.7917C0 22.9167 1.9798 25 4.94949 25H11.3838C12.8687 25 10.8889 19.7917 9.40404 19.7917H5.93939C4.94949 19.7917 4.94949 19.7917 4.94949 18.75V6.25C4.94949 5.20833 4.94949 5.20833 5.93939 5.20833H28.7071C29.697 5.20833 29.697 5.20833 29.697 6.25V14.5833C29.697 15.625 35.1414 15.625 35.1414 14.5833V4.16667C35.1414 2.08333 33.1616 0 30.6869 0H4.94949C1.9798 0 0 1.5625 0 4.16667V19.7917Z" fill="#101010"/>
<path d="M49 5.20833C49 2.08333 47.0202 0 44.0505 0H37.6162C36.1313 0 38.1111 5.20833 39.596 5.20833H43.0606C44.0505 5.20833 44.0505 5.20833 44.0505 6.25V18.75C44.0505 19.7917 44.0505 19.7917 43.0606 19.7917L20.2929 19.7917C19.303 19.7917 19.303 19.7917 19.303 18.75V10.4167C19.303 9.375 13.8586 9.375 13.8586 10.4167V20.8333C13.8586 22.9167 15.8384 25 18.3131 25L44.0505 25C47.0202 25 49 23.4375 49 20.8333V5.20833Z" fill="#101010"/>
</svg>
