<svg width="50" height="50" viewBox="0 0 50 50" fill="none" xmlns="http://www.w3.org/2000/svg">
<path d="M20.2737 36.7358C19.2737 37.7358 19 38.5 19 40.0001C17.8049 40.659 16.5 41.5 14.2496 40.5806C11.9992 39.6611 10.7607 36.3255 9.74958 36.0806C8.578 35.0248 6 35.5 7 36.5C11.2695 38.7921 9.20018 41.8571 13 43.5C15.6153 44.6307 17.7861 44.263 18.5067 44.0469C18.5045 44.0313 18.5022 44.0157 18.5 44C18.862 43.8823 18.8331 43.949 18.5067 44.0469C19.1403 48.4768 19.2915 49.9084 17 49.5001C5 45.5 -7.62939e-06 34.0002 -3.8147e-06 25.0001C0 16 7.76054 0.5 25 0.5C42.2395 0.5 50 15 50 25.0001C50 35.0002 45.5 44.5 33 49.5001C30.2029 50.3176 30.6016 46.3586 31 40.0001C30.9309 38.4876 30.5378 37.6096 29.5 36.7358C33.2166 36.2888 33 36.5 37 34C41 31.5 42.8674 24.9068 38.5 17.5001C39.3597 14.3128 38.0533 11.2352 38 11C37.9467 10.7648 35.4944 10.7762 31 13.5001C26.543 12.5869 23.9707 12.3391 19 13.5001C15.6344 11.5893 13.9827 10.8667 12 11C10.8223 13.3841 10.9878 14.8505 11.5 17.5001C6.67717 23.5826 9.6452 32.0177 13 34C16.3548 35.9823 17.5175 36.2655 20.2737 36.7358Z" fill="#007CFF"/>
</svg>
