<svg width="100" height="48" viewBox="0 0 100 48" fill="none" xmlns="http://www.w3.org/2000/svg">
<path d="M25.208 1.43587C25.5651 0.857041 26.0296 0.30094 26.6967 0.0281758C26.9705 -0.0170736 27.2444 0.00576196 27.5182 0.00576196H41C40.6071 0.323353 40.226 0.652678 39.9642 1.08382C39.2735 2.16219 38.8087 3.36521 38.3802 4.56823C37.1653 8.20065 36.3195 11.9347 35.4977 15.669C35.1273 17.3603 34.7741 19.0554 34.4379 20.7541C33.4135 26.2931 32.3537 31.8203 31.0317 37.3023C30.4007 39.8336 29.7574 42.3646 28.7809 44.8048C28.3281 45.8152 27.8877 46.8933 27.0183 47.6423C26.8159 47.8128 26.6134 48.0282 26.3272 47.9944H14.4178C13.6079 47.9716 12.8099 48.0396 12 47.9602C12.5361 47.5632 13.0124 47.0862 13.3221 46.5187C14.2153 44.8956 14.7749 43.1365 15.3109 41.3884C16.1448 38.5737 16.8112 35.7248 17.443 32.8759C17.836 31.0032 18.3003 29.1416 18.5861 27.2575C18.9078 25.1577 19.396 23.0807 19.789 20.9923C20.4083 17.9161 21.0633 14.8406 21.7899 11.7873C22.3734 9.40367 22.9689 7.03114 23.7668 4.7045C24.1601 3.58099 24.5883 2.46868 25.208 1.43587V1.43587Z" fill="#EB7077"/>
<path d="M41.3143 0.00507639C41.6463 0.00507639 41.9784 -0.00634549 42.3109 0.00507639C43.0442 0.391094 43.6631 1.00396 44.0068 1.76468C44.4651 2.62767 44.8435 3.53613 45.1868 4.46712C46.333 7.97543 47.1123 11.586 47.8915 15.1852C48.5568 18.4134 49.1871 21.6495 49.7822 24.8929C49.8282 25.0632 49.771 25.3018 50 25.347C49.1747 29.6161 48.3613 33.8965 47.3301 38.1318C46.7683 40.414 46.1724 42.6847 45.3249 44.8874C44.8661 45.9886 44.3964 47.192 43.4223 47.9759C42.8038 48.1119 42.3566 47.6465 41.9788 47.2262C41.3257 46.3975 40.9242 45.4209 40.5346 44.4444C39.2395 40.9478 38.4491 37.303 37.6473 33.6697C37.0398 30.8422 36.501 27.9928 35.9396 25.1544C35.6873 23.7119 35.344 22.2928 35.1492 20.8511C35.1147 20.8283 35.0341 20.7827 35 20.7603C35.3234 19.0611 35.6633 17.3654 36.0197 15.6735C36.8105 11.9379 37.6242 8.20239 38.7932 4.56939C39.2054 3.36554 39.6526 2.16222 40.3171 1.08381C40.5695 0.652104 40.9357 0.322668 41.3139 0.00507639H41.3143Z" fill="#F6A2AD"/>
<path d="M56.8072 1.96642C57.2398 1.18347 57.7677 0.309385 58.7041 0.0141811C63.4695 -0.00855132 68.235 0.00286832 73 0.00286832C72.5558 0.422625 72.0877 0.842804 71.7873 1.37612C70.8633 2.94275 70.3231 4.67961 69.7711 6.39364C68.3547 11.1156 67.3585 15.9398 66.41 20.764C65.5339 25.5206 64.5975 30.2763 63.5294 35.0101C62.9774 37.3936 62.401 39.7659 61.669 42.1155C61.2007 43.5685 60.709 45.033 59.9405 46.3839C59.5681 46.9967 59.1359 47.6668 58.4281 47.9843C53.8788 48.0186 49.3173 47.9843 44.7684 47.9954C44.5162 47.9954 44.2522 47.9954 44 47.9616C45.0203 47.1786 45.5124 45.9751 45.9928 44.8739C46.881 42.672 47.5048 40.4019 48.0934 38.1203C49.1735 33.886 50.0255 29.607 50.8901 25.3386C51.9341 19.8333 53.0267 14.328 54.419 8.89061C55.067 6.54103 55.6912 4.1573 56.8076 1.96642H56.8072Z" fill="#EB7077"/>
<path d="M72.3457 0.0050784C72.7279 0.0050784 73.1222 -0.00634799 73.5045 0.0050784C74.126 0.311792 74.5682 0.834125 74.9625 1.36778C75.6075 2.34474 76.0138 3.44675 76.4321 4.52559C77.4238 7.42208 78.1647 10.3981 78.8457 13.3738C79.7539 17.3835 80.5424 21.4158 81.319 25.4478C81.5102 26.4134 81.7013 27.39 81.8208 28.3673L82 28.5375C81.5702 29.1054 81.4026 29.787 81.1639 30.4344C80.4109 32.7403 79.921 35.1256 79.5028 37.4995C79.1804 39.3621 78.7382 41.2137 78.1288 43.0083C77.6749 44.3372 77.1251 45.6548 76.2173 46.7678C75.7867 47.3019 75.2012 47.7106 74.5562 47.9831C73.5645 48.0853 72.9787 47.1768 72.5008 46.5067C71.5091 44.8596 70.9716 43.0197 70.3978 41.2248C68.51 34.5801 67.2792 27.7765 65.9531 21.0182C65.9484 20.9678 65.9306 20.9196 65.9015 20.8784C65.8716 20.8362 65.8318 20.8022 65.7856 20.7795C66.7298 15.9522 67.7215 11.125 69.1315 6.39994C69.6809 4.68482 70.2187 2.94684 71.1388 1.37921C71.4376 0.845552 71.9034 0.425104 72.3457 0.0050784V0.0050784ZM1 25.8455C1.31109 25.8228 1.62176 25.7775 1.94416 25.7775H14.9683C15.5177 25.8455 16.0915 25.8004 16.6174 26.0276C17.3874 26.3285 18.0594 26.8185 18.5648 27.4475C18.6248 27.4133 18.7324 27.3224 18.792 27.2768C18.5053 29.1623 18.0394 31.0249 17.6451 32.8992C17.0117 35.7502 16.3427 38.6012 15.5061 41.418C14.9683 43.1673 14.4068 44.9277 13.5107 46.5521C13.2 47.1199 12.7222 47.5969 12.1843 47.9946C11.9812 48.0288 11.826 47.8923 11.6584 47.7901C11.097 47.4495 10.7743 46.8588 10.428 46.325C8.79088 42.7811 8.61172 38.8623 7.59604 35.1595C7.08224 33.3082 6.44875 31.4681 5.51704 29.7644C4.94324 28.7418 4.23855 27.7653 3.31847 26.9814C2.63755 26.4591 1.84856 26.0387 1.00042 25.8455H1Z" fill="#F6A2AD"/>
<path d="M83.3607 27.2617C84.1014 26.4653 85.2068 25.9608 86.3241 26.0055H95.9666C97.3069 26.0281 98.6592 25.9608 100 26.0393C99.6002 26.2972 99.118 26.3981 98.6946 26.6113C97.2247 27.2505 95.9666 28.3156 95.1669 29.6504C93.8851 31.7814 93.4381 34.2264 93.0619 36.6262C92.6856 38.9814 92.6975 41.4151 91.8978 43.703C91.357 45.3068 90.5338 46.9215 89.1108 47.9758C84.6897 48.0208 80.2679 47.987 75.8583 47.9983C75.5644 47.9983 75.2821 48.0092 75 47.9532C75.6348 47.6845 76.2109 47.2807 76.6343 46.7534C77.5281 45.6543 78.0692 44.3534 78.5159 43.0414C79.1156 41.269 79.5509 39.4411 79.8681 37.602C80.2798 35.2581 80.7618 32.9025 81.5029 30.6262C81.7378 29.9871 81.9027 29.3141 82.3258 28.7533C82.6787 28.2598 82.9137 27.6877 83.3607 27.2617V27.2617Z" fill="#EB7077"/>
</svg>
