<svg width="51" height="42" viewBox="0 0 51 42" fill="none" xmlns="http://www.w3.org/2000/svg">
<path d="M1.49998 19.4999L13.8613 7.13878C15.8613 5.13877 19.3613 7.63874 16.8613 10.1388L5.99998 20.9999L17 31.9999C19 33.9999 16 36.9999 14 34.9999L1.49998 22.4999C0.5 21.4999 0.5 20.4999 1.49998 19.4999Z" fill="#007CFF"/>
<path d="M50.2286 22.1596L37.8674 34.5207C35.8674 36.5207 32.3674 34.0207 34.8674 31.5207L45.7287 20.6596L34.7287 9.65958C32.7286 7.65958 35.7286 4.65958 37.7286 6.65958L50.2286 19.1596C51.2286 20.1596 51.2286 21.1596 50.2286 22.1596Z" fill="#007CFF"/>
<path d="M19 39.4998C19.5 36.9997 27.5 4.99945 28.5 1.99973C29.5 -1 33.5 0 32.5 2.99973C31.5 5.99945 23.5 38.4997 23 40.4998C22.5 42.4999 18.5 41.9999 19 39.4998Z" fill="#007CFF"/>
</svg>
