<svg width="50" height="46" viewBox="0 0 50 46" fill="none" xmlns="http://www.w3.org/2000/svg">
<path d="M13.3584 26.2272L19.2648 20.3209C20.2204 19.3653 21.8927 20.5598 20.6982 21.7543L15.5085 26.944L20.7645 32.1999C21.7201 33.1556 20.2867 34.589 19.331 33.6334L13.3584 27.6607C12.8805 27.1829 12.8805 26.7051 13.3584 26.2272Z" fill="#007CFF"/>
<path d="M36.6416 27.498L30.7352 33.4044C29.7796 34.36 28.1073 33.1655 29.3018 31.9709L34.4915 26.7813L29.2355 21.5254C28.2799 20.5697 29.7133 19.1363 30.669 20.0919L36.6416 26.0646C37.1195 26.5424 37.1195 27.0202 36.6416 27.498Z" fill="#007CFF"/>
<path d="M21.7201 35.7835C21.959 34.5889 25.7815 19.2987 26.2594 17.8654C26.7372 16.4321 28.6484 16.9099 28.1706 18.3432C27.6928 19.7765 23.8703 35.3057 23.6314 36.2613C23.3925 37.217 21.4812 36.9781 21.7201 35.7835Z" fill="#007CFF"/>
<path d="M6.00003 46.0001C3 46.0001 1.52587e-05 43 3.05176e-05 40.0001L0 10H4L4.00003 40.0001C4.00003 41 5 42.0001 6.00003 42.0001H44C45 42.0001 46 41 46 40.0001L46 10H50L50 40.0001C50 43 47 46.0001 44 46.0001H6.00003Z" fill="#007CFF"/>
<path d="M1.52588e-05 6V11H50V6C50 3 47 0 44 0H7.00002C3 0 0 3 1.52588e-05 6Z" fill="#007CFF"/>
</svg>
